<svg width="131" height="131" viewBox="0 0 131 131" fill="none" xmlns="http://www.w3.org/2000/svg">
<path d="M65.43 130.86C101.566 130.86 130.86 101.566 130.86 65.43C130.86 29.294 101.566 0 65.43 0C29.294 0 0 29.294 0 65.43C0 101.566 29.294 130.86 65.43 130.86Z" fill="#FDD800"/>
<circle cx="65" cy="68.8333" r="7.66667" fill="black"/>
<path fill-rule="evenodd" clip-rule="evenodd" d="M82.4034 42H91.8334C98.1847 42 103.333 47.1487 103.333 53.5V84.1667C103.333 90.5179 98.1847 95.6667 91.8334 95.6667H38.1667C31.8155 95.6667 26.6667 90.5179 26.6667 84.1667V53.5C26.6667 47.1487 31.8155 42 38.1667 42H47.5967L51.8517 35.6367C53.9839 32.427 57.5818 30.4986 61.4351 30.5H68.5651C72.4184 30.4986 76.0163 32.427 78.1484 35.6367L82.4034 42ZM49.6667 68.8333C49.6667 77.3017 56.5317 84.1667 65.0001 84.1667C69.0667 84.1667 72.9668 82.5512 75.8424 79.6756C78.7179 76.8001 80.3334 72.9 80.3334 68.8333C80.3334 60.365 73.4684 53.5 65.0001 53.5C56.5317 53.5 49.6667 60.365 49.6667 68.8333Z" fill="black"/>
</svg>
